<svg width="600" height="400" xmlns="http://www.w3.org/2000/svg">
  <rect width="100%" height="100%" fill="#0a2a49" />
  <g stroke="#0ea5e9" stroke-width="1" opacity="0.3">
    <line x1="0" y1="50" x2="600" y2="50" />
    <line x1="0" y1="100" x2="600" y2="100" />
    <line x1="0" y1="150" x2="600" y2="150" />
    <line x1="0" y1="200" x2="600" y2="200" />
    <line x1="0" y1="250" x2="600" y2="250" />
    <line x1="0" y1="300" x2="600" y2="300" />
    <line x1="0" y1="350" x2="600" y2="350" />
    
    <line x1="50" y1="0" x2="50" y2="400" />
    <line x1="100" y1="0" x2="100" y2="400" />
    <line x1="150" y1="0" x2="150" y2="400" />
    <line x1="200" y1="0" x2="200" y2="400" />
    <line x1="250" y1="0" x2="250" y2="400" />
    <line x1="300" y1="0" x2="300" y2="400" />
    <line x1="350" y1="0" x2="350" y2="400" />
    <line x1="400" y1="0" x2="400" y2="400" />
    <line x1="450" y1="0" x2="450" y2="400" />
    <line x1="500" y1="0" x2="500" y2="400" />
    <line x1="550" y1="0" x2="550" y2="400" />
  </g>
  <text x="300" y="210" font-family="monospace" font-size="28" fill="#0ea5e9" text-anchor="middle" font-weight="bold">
    # Générateur CV
  </text>
  <g transform="translate(285, 140)" fill="none" stroke="#0ea5e9" stroke-width="2" stroke-linecap="round" stroke-linejoin="round">
    <rect x="3" y="11" width="24" height="16" rx="2" />
    <path d="M7 11V7a5 5 0 0110 0v4" />
  </g>
</svg>
